<?xml version="1.0" encoding="utf-8"?>
<!-- Generator: Adobe Illustrator 19.1.0, SVG Export Plug-In . SVG Version: 6.00 Build 0)  -->
<svg version="1.1" id="Layer_1" xmlns="http://www.w3.org/2000/svg" xmlns:xlink="http://www.w3.org/1999/xlink" x="0px" y="0px"
	 viewBox="-149 321 900 560" style="enable-background:new -149 321 900 560;" xml:space="preserve">
<style type="text/css">
	.st0{display:none;fill:none;}
	.st1{fill:none;}
	.st2{fill:#1F242D;stroke:#575E6B;stroke-linecap:round;stroke-linejoin:round;stroke-miterlimit:10;}
	.st3{fill:none;stroke:#575E6B;stroke-linecap:round;stroke-linejoin:round;stroke-miterlimit:10;}
	.st4{fill:#1F242D;stroke:#575E6B;stroke-width:2;stroke-linecap:round;stroke-linejoin:round;stroke-miterlimit:10;}
	.st5{fill:none;stroke:#575E6B;stroke-width:2;stroke-linecap:round;stroke-linejoin:round;stroke-miterlimit:10;}
	.st6{fill:url(#SVGID_1_);}
	.st7{fill:url(#SVGID_2_);}
	.st8{fill:url(#SVGID_3_);}
	.st9{fill:url(#SVGID_4_);}
	.st10{fill:url(#SVGID_5_);}
	.st11{fill:url(#SVGID_6_);}
	.st12{fill:url(#SVGID_7_);}
	.st13{fill:url(#SVGID_8_);}
</style>
<rect x="78" y="277" class="st0" width="900" height="560"/>
<g>
	<path id="anchor" class="st1" d="M301,601"/>
	<g>
		<g>
			<polygon class="st2" points="210.7,398.2 244.5,357.6 292.7,379.4 337.9,415.5 320.6,497.2 320.9,497.1 237.3,516.5 185.8,450.5 
							"/>
			<line class="st3" x1="244.5" y1="357.6" x2="216.1" y2="425"/>
			<line class="st3" x1="216.1" y1="425" x2="237.3" y2="516.5"/>
			<line class="st3" x1="216.1" y1="425" x2="185.8" y2="450.5"/>
			<line class="st3" x1="244.5" y1="357.6" x2="299.5" y2="405.8"/>
			<line class="st3" x1="299.5" y1="405.8" x2="320.6" y2="497.2"/>
			<line class="st3" x1="299.5" y1="405.8" x2="337.9" y2="415.5"/>
			<line class="st3" x1="299.9" y1="405.6" x2="216.1" y2="425"/>
		</g>
		<g>
			<polygon class="st2" points="80.3,577.8 62,528.2 104.9,497.4 158.8,476.2 220.9,532.2 221,531.8 195.9,614 113.1,625.5 			"/>
			<line class="st3" x1="62" y1="528.2" x2="106.1" y2="586.5"/>
			<line class="st3" x1="106.1" y1="586.5" x2="195.9" y2="614"/>
			<line class="st3" x1="106.1" y1="586.5" x2="113.1" y2="625.5"/>
			<line class="st3" x1="62" y1="528.2" x2="131.2" y2="504.6"/>
			<line class="st3" x1="131.2" y1="504.6" x2="220.9" y2="532.2"/>
			<line class="st3" x1="131.2" y1="504.6" x2="158.8" y2="476.2"/>
			<line class="st3" x1="131.3" y1="504.4" x2="106.1" y2="586.5"/>
		</g>
		<g>
			<polygon class="st2" points="170.6,780.6 118.5,771.6 113.2,719 121.8,661.8 201.4,636 201.1,635.6 259.7,698.5 228.3,776 			"/>
			<line class="st3" x1="118.5" y1="771.6" x2="191.1" y2="762.5"/>
			<line class="st3" x1="191.1" y1="762.5" x2="259.7" y2="698.5"/>
			<line class="st3" x1="191.1" y1="762.5" x2="228.3" y2="776"/>
			<line class="st3" x1="118.5" y1="771.6" x2="132.6" y2="699.8"/>
			<line class="st3" x1="132.6" y1="699.8" x2="201.4" y2="636"/>
			<line class="st3" x1="132.6" y1="699.8" x2="121.8" y2="661.8"/>
			<line class="st3" x1="132.4" y1="699.6" x2="191.1" y2="762.5"/>
		</g>
		<g>
			<polygon class="st2" points="391.4,803.8 357.5,844.3 309.3,822.6 264.1,786.5 281.4,704.8 281.1,704.8 364.8,685.5 416.2,751.5 
							"/>
			<line class="st3" x1="357.5" y1="844.3" x2="386" y2="777"/>
			<line class="st3" x1="386" y1="777" x2="364.8" y2="685.5"/>
			<line class="st3" x1="386" y1="777" x2="416.2" y2="751.5"/>
			<line class="st3" x1="357.5" y1="844.3" x2="302.5" y2="796.2"/>
			<line class="st3" x1="302.5" y1="796.2" x2="281.4" y2="704.8"/>
			<line class="st3" x1="302.5" y1="796.2" x2="264.1" y2="786.5"/>
			<line class="st3" x1="302.2" y1="796.3" x2="386" y2="777"/>
		</g>
		<g>
			<polygon class="st2" points="521.8,624.1 540,673.8 497.1,704.6 443.3,725.8 381.1,669.8 381,670.1 406.1,588 488.9,576.5 			"/>
			<line class="st3" x1="540" y1="673.8" x2="495.9" y2="615.5"/>
			<line class="st3" x1="495.9" y1="615.5" x2="406.1" y2="588"/>
			<line class="st3" x1="495.9" y1="615.5" x2="488.9" y2="576.5"/>
			<line class="st3" x1="540" y1="673.8" x2="470.9" y2="697.3"/>
			<line class="st3" x1="470.9" y1="697.3" x2="381.1" y2="669.8"/>
			<line class="st3" x1="470.9" y1="697.3" x2="443.3" y2="725.8"/>
			<line class="st3" x1="470.8" y1="697.6" x2="495.9" y2="615.5"/>
		</g>
		<g>
			<polygon class="st2" points="431.4,421.4 483.5,430.4 488.8,483 480.2,540.2 400.7,566 400.9,566.3 342.3,503.5 373.7,426 			"/>
			<line class="st3" x1="483.5" y1="430.4" x2="411" y2="439.5"/>
			<line class="st3" x1="411" y1="439.5" x2="342.3" y2="503.5"/>
			<line class="st3" x1="411" y1="439.5" x2="373.7" y2="426"/>
			<line class="st3" x1="483.5" y1="430.4" x2="469.4" y2="502"/>
			<line class="st3" x1="469.4" y1="502" x2="400.7" y2="566"/>
			<line class="st3" x1="469.4" y1="502" x2="480.2" y2="540.2"/>
			<line class="st3" x1="469.6" y1="502.4" x2="411" y2="439.5"/>
		</g>
	</g>
	<g>
		<g>
			<polygon class="st4" points="320.1,419 360.9,404 386.4,439.4 403.8,483.8 357.7,535 358,535 290.3,514.5 280.8,446.1 			"/>
			<line class="st5" x1="360.9" y1="404" x2="312.9" y2="440.4"/>
			<line class="st5" x1="312.9" y1="440.4" x2="290.3" y2="514.5"/>
			<line class="st5" x1="312.9" y1="440.4" x2="280.8" y2="446.1"/>
			<line class="st5" x1="360.9" y1="404" x2="380.4" y2="461"/>
			<line class="st5" x1="380.4" y1="461" x2="357.7" y2="535"/>
			<line class="st5" x1="380.4" y1="461" x2="403.8" y2="483.8"/>
			<line class="st5" x1="380.7" y1="461.1" x2="312.9" y2="440.4"/>
		</g>
		<g>
			<polygon class="st4" points="153,493.5 160.4,450.6 203.7,446.2 250.9,453.4 272.2,518.8 272.4,518.7 220.7,567 156.8,541 			"/>
			<line class="st5" x1="160.4" y1="450.6" x2="167.9" y2="510.4"/>
			<line class="st5" x1="167.9" y1="510.4" x2="220.7" y2="567"/>
			<line class="st5" x1="167.9" y1="510.4" x2="156.8" y2="541"/>
			<line class="st5" x1="160.4" y1="450.6" x2="219.5" y2="462.2"/>
			<line class="st5" x1="219.5" y1="462.2" x2="272.2" y2="518.8"/>
			<line class="st5" x1="219.5" y1="462.2" x2="250.9" y2="453.4"/>
			<line class="st5" x1="219.7" y1="462" x2="167.9" y2="510.4"/>
		</g>
		<g>
			<polygon class="st4" points="133.9,675.5 100.5,647.5 118.3,607.8 148.1,570.5 215.5,584.8 215.4,584.5 231.4,653.5 177,696 			
				"/>
			<line class="st5" x1="100.5" y1="647.5" x2="156" y2="671"/>
			<line class="st5" x1="156" y1="671" x2="231.4" y2="653.5"/>
			<line class="st5" x1="156" y1="671" x2="177" y2="696"/>
			<line class="st5" x1="100.5" y1="647.5" x2="140.1" y2="602.2"/>
			<line class="st5" x1="140.1" y1="602.2" x2="215.5" y2="584.8"/>
			<line class="st5" x1="140.1" y1="602.2" x2="148.1" y2="570.5"/>
			<line class="st5" x1="140" y1="602" x2="156" y2="671"/>
		</g>
		<g>
			<polygon class="st4" points="282,783 241.1,798 215.6,762.6 198.2,718.2 244.3,667 244,666.8 311.7,687.5 321.2,755.8 			"/>
			<line class="st5" x1="241.1" y1="798" x2="289.1" y2="761.5"/>
			<line class="st5" x1="289.1" y1="761.5" x2="311.7" y2="687.5"/>
			<line class="st5" x1="289.1" y1="761.5" x2="321.2" y2="755.8"/>
			<line class="st5" x1="241.1" y1="798" x2="221.6" y2="741"/>
			<line class="st5" x1="221.6" y1="741" x2="244.3" y2="667"/>
			<line class="st5" x1="221.6" y1="741" x2="198.2" y2="718.2"/>
			<line class="st5" x1="221.3" y1="740.8" x2="289.1" y2="761.5"/>
		</g>
		<g>
			<polygon class="st4" points="449,708.5 441.6,751.3 398.3,755.8 351.1,748.6 329.8,683.1 329.6,683.2 381.3,635 445.2,661 			"/>
			<line class="st5" x1="441.6" y1="751.3" x2="434.1" y2="691.5"/>
			<line class="st5" x1="434.1" y1="691.5" x2="381.3" y2="635"/>
			<line class="st5" x1="434.1" y1="691.5" x2="445.2" y2="661"/>
			<line class="st5" x1="441.6" y1="751.3" x2="382.5" y2="739.8"/>
			<line class="st5" x1="382.5" y1="739.8" x2="329.8" y2="683.1"/>
			<line class="st5" x1="382.5" y1="739.8" x2="351.1" y2="748.6"/>
			<line class="st5" x1="382.3" y1="740" x2="434.1" y2="691.5"/>
		</g>
		<g>
			<polygon class="st4" points="468.1,526.5 501.5,554.5 483.7,594.2 453.9,631.5 386.5,617.2 386.6,617.3 370.7,548.5 425,506 			
				"/>
			<line class="st5" x1="501.5" y1="554.5" x2="446" y2="531"/>
			<line class="st5" x1="446" y1="531" x2="370.7" y2="548.5"/>
			<line class="st5" x1="446" y1="531" x2="425" y2="506"/>
			<line class="st5" x1="501.5" y1="554.5" x2="461.9" y2="599.8"/>
			<line class="st5" x1="461.9" y1="599.8" x2="386.5" y2="617.2"/>
			<line class="st5" x1="461.9" y1="599.8" x2="453.9" y2="631.5"/>
			<line class="st5" x1="462" y1="600" x2="446" y2="531"/>
		</g>
	</g>
	<g>
		<linearGradient id="SVGID_1_" gradientUnits="userSpaceOnUse" x1="256.0598" y1="552.9688" x2="347.2182" y2="650.2957">
			<stop  offset="0" style="stop-color:#00C9FF"/>
			<stop  offset="1" style="stop-color:#4591ED"/>
		</linearGradient>
		<path class="st6" d="M424.6,636.3c-0.8-1.4-2.7-1.9-4.1-1.1c-0.5,0.3-0.9,0.7-1.2,1.3l-45.5-13.9c0.4-2.4,0.4-4.8-0.1-7.1
			l-6.6-28.8c0.1,0,0.1,0,0.2,0l28.7-6.7c0.1,0.3,0.2,0.5,0.4,0.7c1.7,3,5.5,4,8.5,2.3c3-1.7,4-5.5,2.3-8.5c-1.7-3-5.5-4-8.5-2.3
			c-2.1,1.2-3.2,3.5-3.1,5.8l-28.7,6.7c-0.1,0-0.1,0.1-0.2,0.1l-6.3-27.5c-0.6-2.6-2-5.2-3.8-7.5l35.1-32.8c0.5,0.4,1.1,0.6,1.8,0.6
			c1.7,0,3-1.3,3-3s-1.3-3-3-3c-1.7,0-3,1.3-3,3c0,0.6,0.2,1.2,0.5,1.7l-35,32.8c-1.3-1.4-2.8-2.6-4.4-3.6c-1.2-0.7-2.4-1.3-3.5-1.6
			l-26-8.1l8.4-27.5c0.3,0,0.5,0.1,0.8,0.1c3.4,0,6.2-2.8,6.2-6.2c0-3.4-2.8-6.2-6.2-6.2c-3.4,0-6.2,2.8-6.2,6.2
			c0,2.4,1.4,4.5,3.5,5.6l-8.4,27.5l-25-7.8c-3.3-1-7.1-0.9-10.6,0.1l-10.9-46.9c0.6-0.2,1.1-0.7,1.4-1.3c0.8-1.4,0.3-3.3-1.1-4.1
			c-1.4-0.8-3.3-0.3-4.1,1.1c-0.8,1.4-0.3,3.3,1.1,4.1c0.5,0.3,1.1,0.4,1.7,0.4l10.9,46.9c0,0,0,0,0,0c-2.4,0.8-4.7,2-6.5,3.7
			l-21.4,19.7c0-0.1-0.1-0.2-0.2-0.3l-20.2-21.5c0.2-0.2,0.3-0.4,0.5-0.7c1.7-3,0.7-6.8-2.3-8.5s-6.8-0.7-8.5,2.3
			c-1.7,3-0.7,6.8,2.3,8.5c2.1,1.2,4.6,1,6.5-0.2l20.2,21.5c0.1,0.1,0.2,0.2,0.3,0.2l-21.1,19.5c-1.8,1.8-3.3,4.1-4.3,6.6l-45.9-14
			c0.1-0.6,0-1.3-0.4-1.9c-0.8-1.4-2.7-1.9-4.1-1.1c-1.4,0.8-1.9,2.7-1.1,4.1c0.8,1.4,2.7,1.9,4.1,1.1c0.5-0.3,0.9-0.7,1.2-1.3
			l45.8,13.9c-1.1,3.3-1.5,6.8-0.8,9.9l6,26.2c0,0,0,0,0,0L206,622c-0.1-0.3-0.2-0.5-0.4-0.7c-1.7-3-5.5-4-8.5-2.3
			c-3,1.7-4,5.5-2.3,8.5c1.7,3,5.5,4,8.5,2.3c2.1-1.2,3.2-3.5,3.1-5.8l27.6-6.4l5.9,25.8c0.8,3.2,2.7,6.5,5.3,9l-34.8,32.6
			c-0.5-0.4-1.1-0.6-1.8-0.6c-1.7,0-3,1.3-3,3s1.3,3,3,3c1.7,0,3-1.3,3-3c0-0.6-0.2-1.2-0.5-1.7l34.9-32.6c0.9,0.8,1.9,1.5,2.9,2.1
			c1.2,0.7,2.4,1.3,3.5,1.6l28,8.6c0,0,0,0.1-0.1,0.1l-8.6,28.2c-0.3,0-0.5-0.1-0.8-0.1c-3.4,0-6.2,2.8-6.2,6.2
			c0,3.4,2.8,6.2,6.2,6.2c3.4,0,6.2-2.8,6.2-6.2c0-2.4-1.4-4.5-3.5-5.6l8.6-28.2c0,0,0-0.1,0-0.1l27.2,8.4c2.6,0.8,5.5,0.9,8.2,0.5
			l10.8,46.5c-0.6,0.2-1.1,0.7-1.4,1.3c-0.8,1.4-0.3,3.3,1.1,4.1c1.4,0.8,3.3,0.3,4.1-1.1c0.8-1.4,0.3-3.3-1.1-4.1
			c-0.5-0.3-1.1-0.4-1.7-0.4l-10.8-46.5c3.3-0.7,6.4-2.2,8.8-4.3l19.9-18.4c0,0,0,0,0,0.1l19.3,20.7c-0.2,0.2-0.3,0.4-0.5,0.7
			c-1.7,3-0.7,6.8,2.3,8.5s6.8,0.7,8.5-2.3c1.7-3,0.7-6.8-2.3-8.5c-2.1-1.2-4.6-1-6.5,0.2l-19.3-20.7c0,0,0,0-0.1,0l19.4-17.9
			c2.6-2.2,4.5-5.5,5.3-9.1l45.5,13.8c-0.1,0.6,0,1.3,0.4,1.9c0.8,1.4,2.7,1.9,4.1,1.1C424.9,639.5,425.4,637.7,424.6,636.3z
			 M366.9,631.1L326,668.9c-2.9,2.6-7.3,4.2-11.6,4.2c-1.6,0-3.1-0.2-4.5-0.6l-57-17.6c-0.8-0.2-1.8-0.7-3.1-1.4
			c-3.9-2.3-6.9-6.3-8-10.5l-12.3-54c-1.1-5.1,0.9-11.7,4.9-15.6l43.8-40.5c2.9-2.6,7.3-4.2,11.6-4.2c1.6,0,3.1,0.2,4.5,0.6
			l52.9,16.5c0.9,0.2,1.8,0.7,3.1,1.4c3.9,2.3,6.9,6.3,8,10.5l13.3,58.2C373,621.2,370.9,627.7,366.9,631.1z"/>
		<g>
			<linearGradient id="SVGID_2_" gradientUnits="userSpaceOnUse" x1="278.4489" y1="531.9988" x2="369.6072" y2="629.3257">
				<stop  offset="0" style="stop-color:#00C9FF"/>
				<stop  offset="1" style="stop-color:#4591ED"/>
			</linearGradient>
			<path class="st7" d="M281.6,570.8c-0.7,2.3,0.5,4.5,2.8,5.3l44.9,13.9c2.3,0.7,4.5-0.5,5.3-2.8l7.2-23.1c0.7-2.3-0.5-4.5-2.8-5.3
				L294.1,545c-2.3-0.7-4.5,0.5-5.3,2.8L281.6,570.8z"/>
			<linearGradient id="SVGID_3_" gradientUnits="userSpaceOnUse" x1="255.9074" y1="553.1116" x2="347.0657" y2="650.4385">
				<stop  offset="0" style="stop-color:#00C9FF"/>
				<stop  offset="1" style="stop-color:#4591ED"/>
			</linearGradient>
			<path class="st8" d="M313.1,655c1.6,1.7,4.4,1.8,6,0.2l34.6-32c1.7-1.6,1.8-4.4,0.2-6l-16.4-17.9c-1.6-1.7-4.4-1.8-6-0.2
				l-34.6,32c-1.7,1.6-1.8,4.4-0.2,6L313.1,655z"/>
			<linearGradient id="SVGID_4_" gradientUnits="userSpaceOnUse" x1="233.6191" y1="573.9873" x2="324.7774" y2="671.3142">
				<stop  offset="0" style="stop-color:#00C9FF"/>
				<stop  offset="1" style="stop-color:#4591ED"/>
			</linearGradient>
			<path class="st9" d="M255.8,635.6c0.5,2.3,2.8,3.7,5,3.3l23.7-5.4c2.3-0.5,3.7-2.8,3.3-5l-10.4-45.8c-0.5-2.3-2.8-3.7-5-3.3
				l-23.7,5.4c-2.3,0.5-3.7,2.8-3.3,5L255.8,635.6z"/>
			<linearGradient id="SVGID_5_" gradientUnits="userSpaceOnUse" x1="256.2619" y1="552.7795" x2="347.4202" y2="650.1065">
				<stop  offset="0" style="stop-color:#00C9FF"/>
				<stop  offset="1" style="stop-color:#4591ED"/>
			</linearGradient>
			<path class="st10" d="M272.2,575.5c2.3-0.5,4.6-2.8,5.4-5l6-19.1c0.7-2.3-0.2-2.8-1.8-1.2l-30,27.7c-1.7,1.6-1.3,2.4,1,1.9
				L272.2,575.5z"/>
			<linearGradient id="SVGID_6_" gradientUnits="userSpaceOnUse" x1="287.2703" y1="523.7365" x2="378.4286" y2="621.0634">
				<stop  offset="0" style="stop-color:#00C9FF"/>
				<stop  offset="1" style="stop-color:#4591ED"/>
			</linearGradient>
			<path class="st11" d="M353.1,611c1.6,1.7,2.4,1.3,1.9-1l-9.1-39.8c-0.5-2.3-1.5-2.4-2.2-0.1l-6,19.1c-0.7,2.3,0,5.5,1.6,7.2
				L353.1,611z"/>
			<linearGradient id="SVGID_7_" gradientUnits="userSpaceOnUse" x1="224.4306" y1="582.5933" x2="315.589" y2="679.9203">
				<stop  offset="0" style="stop-color:#00C9FF"/>
				<stop  offset="1" style="stop-color:#4591ED"/>
			</linearGradient>
			<path class="st12" d="M305.6,655.6c2.3,0.7,2.8-0.2,1.2-1.8l-13.5-14.6c-1.6-1.7-4.8-2.7-7.1-2.2l-19.5,4.4
				c-2.3,0.5-2.4,1.5-0.1,2.2L305.6,655.6z"/>
			<linearGradient id="SVGID_8_" gradientUnits="userSpaceOnUse" x1="255.8688" y1="553.1477" x2="347.0271" y2="650.4747">
				<stop  offset="0" style="stop-color:#00C9FF"/>
				<stop  offset="1" style="stop-color:#4591ED"/>
			</linearGradient>
			<path class="st13" d="M291.2,626.2c0.5,2.3,2.4,2.8,4,1.3l32.5-30c1.7-1.6,1.3-3.4-0.9-4.1l-42.2-13.1c-2.3-0.7-3.5,0.6-3.2,2.8
				L291.2,626.2z"/>
		</g>
	</g>
</g>
</svg>
